{
  "accessors": [
    {
      "bufferView": 2,
      "componentType": 5126,
      "count": 7037,
      "max": [
        1.783666968345642,
        -0.22751258313655853,
        4.830899238586426
      ],
      "min": [
        -1.783666968345642,
        -0.42344605922698975,
        0.0018352916231378913
      ],
      "type": "VEC3"
    },
    {
      "bufferView": 2,
      "byteOffset": 84444,
      "componentType": 5126,
      "count": 7037,
      "max": [
        1.0,
        1.0,
        1.0
      ],
      "min": [
        -1.0,
        -1.0,
        -1.0
      ],
      "type": "VEC3"
    },
    {
      "bufferView": 1,
      "componentType": 5126,
      "count": 7037,
      "max": [
        0.8550935983657837,
        1.0
      ],
      "min": [
        0.0,
        -7.364526055653187e-08
      ],
      "type": "VEC2"
    },
    {
      "bufferView": 0,
      "componentType": 5125,
      "count": 13338,
      "type": "SCALAR"
    },
    {
      "bufferView": 2,
      "byteOffset": 168888,
      "componentType": 5126,
      "count": 9748,
      "max": [
        2.364746332168579,
        0.3041903078556061,
        4.830899238586426
      ],
      "min": [
        -2.364746332168579,
        -0.3096390664577484,
        0.001835240051150322
      ],
      "type": "VEC3"
    },
    {
      "bufferView": 2,
      "byteOffset": 285864,
      "componentType": 5126,
      "count": 9748,
      "max": [
        1.0,
        1.0,
        1.0
      ],
      "min": [
        -1.0,
        -1.0,
        -1.0
      ],
      "type": "VEC3"
    },
    {
      "bufferView": 1,
      "byteOffset": 56296,
      "componentType": 5126,
      "count": 9748,
      "max": [
        1.4701343774795532,
        1.5216962099075317
      ],
      "min": [
        -0.17939838767051697,
        -0.6729820370674133
      ],
      "type": "VEC2"
    },
    {
      "bufferView": 0,
      "byteOffset": 53352,
      "componentType": 5125,
      "count": 26346,
      "type": "SCALAR"
    },
    {
      "bufferView": 2,
      "byteOffset": 402840,
      "componentType": 5126,
      "count": 120,
      "max": [
        2.1921374797821045,
        -0.2103327214717865,
        3.1430318355560303
      ],
      "min": [
        -2.1921374797821045,
        -0.2126450389623642,
        2.3186447620391846
      ],
      "type": "VEC3"
    },
    {
      "bufferView": 2,
      "byteOffset": 404280,
      "componentType": 5126,
      "count": 120,
      "max": [
        0.7588002681732178,
        -0.46054431796073914,
        0.7587870955467224
      ],
      "min": [
        -0.7587995529174805,
        -1.0,
        -0.7588178515434265
      ],
      "type": "VEC3"
    },
    {
      "bufferView": 1,
      "byteOffset": 134280,
      "componentType": 5126,
      "count": 120,
      "max": [
        0.047404929995536804,
        0.9995579719543457
      ],
      "min": [
        -0.03697232902050018,
        0.8885895609855652
      ],
      "type": "VEC2"
    },
    {
      "bufferView": 0,
      "byteOffset": 158736,
      "componentType": 5125,
      "count": 327,
      "type": "SCALAR"
    },
    {
      "bufferView": 2,
      "byteOffset": 405720,
      "componentType": 5126,
      "count": 2160,
      "max": [
        0.29817089438438416,
        0.0287562794983387,
        1.8514089584350586
      ],
      "min": [
        -0.29817089438438416,
        -0.02888655476272106,
        -1.8411939144134521
      ],
      "type": "VEC3"
    },
    {
      "bufferView": 2,
      "byteOffset": 431640,
      "componentType": 5126,
      "count": 2160,
      "max": [
        1.0,
        0.9999972581863403,
        0.9538024663925171
      ],
      "min": [
        -1.0,
        -0.9999980926513672,
        -1.0
      ],
      "type": "VEC3"
    },
    {
      "bufferView": 1,
      "byteOffset": 135240,
      "componentType": 5126,
      "count": 2160,
      "max": [
        0.9767948985099792,
        0.9707404375076294
      ],
      "min": [
        0.11330480873584747,
        -1.036821722984314
      ],
      "type": "VEC2"
    },
    {
      "bufferView": 0,
      "byteOffset": 160044,
      "componentType": 5125,
      "count": 5934,
      "type": "SCALAR"
    },
    {
      "bufferView": 2,
      "byteOffset": 457560,
      "componentType": 5126,
      "count": 5180,
      "max": [
        1.8108290433883667,
        -0.23685941100120544,
        2.330465793609619
      ],
      "min": [
        -1.8108290433883667,
        -0.2576512098312378,
        0.5805673003196716
      ],
      "type": "VEC3"
    },
    {
      "bufferView": 2,
      "byteOffset": 519720,
      "componentType": 5126,
      "count": 5180,
      "max": [
        0.9991279244422913,
        1.0,
        0.9986342787742615
      ],
      "min": [
        -0.9991283416748047,
        -0.9959918856620789,
        -0.9999967217445374
      ],
      "type": "VEC3"
    },
    {
      "bufferView": 1,
      "byteOffset": 152520,
      "componentType": 5126,
      "count": 5180,
      "max": [
        0.7080914378166199,
        1.049793004989624
      ],
      "min": [
        0.25572246313095093,
        -0.04979574680328369
      ],
      "type": "VEC2"
    },
    {
      "bufferView": 0,
      "byteOffset": 183780,
      "componentType": 5125,
      "count": 23040,
      "type": "SCALAR"
    }
  ],
  "asset": {
    "extras": {
      "author": "b0ho (https://sketchfab.com/b0ho)",
      "license": "CC-BY-4.0 (http://creativecommons.org/licenses/by/4.0/)",
      "source": "https://sketchfab.com/3d-models/book-case-eae78348a91b423aa428961161816fcc",
      "title": "Book Case"
    },
    "generator": "Sketchfab-16.17.0",
    "version": "2.0"
  },
  "bufferViews": [
    {
      "buffer": 0,
      "byteLength": 275940,
      "name": "floatBufferViews",
      "target": 34963
    },
    {
      "buffer": 0,
      "byteLength": 193960,
      "byteOffset": 275940,
      "byteStride": 8,
      "name": "floatBufferViews",
      "target": 34962
    },
    {
      "buffer": 0,
      "byteLength": 581880,
      "byteOffset": 469900,
      "byteStride": 12,
      "name": "floatBufferViews",
      "target": 34962
    }
  ],
  "buffers": [
    {
      "byteLength": 1051780,
      "uri": "scene.bin"
    }
  ],
  "extensionsUsed": [
    "KHR_materials_specular"
  ],
  "images": [
    {
      "uri": "textures/Material_baseColor.jpeg"
    },
    {
      "uri": "textures/Material_metallicRoughness.png"
    },
    {
      "uri": "textures/Material_specularf0.png"
    },
    {
      "uri": "textures/Material.003_baseColor.jpeg"
    }
  ],
  "materials": [
    {
      "doubleSided": true,
      "extensions": {
        "KHR_materials_specular": {
          "specularColorFactor": [
            1.0,
            1.0,
            1.0
          ],
          "specularFactor": 0.12038131925735392,
          "specularTexture": {
            "index": 2
          }
        }
      },
      "name": "Material",
      "pbrMetallicRoughness": {
        "baseColorFactor": [
          0.5287635162316685,
          0.5287635162316685,
          0.5287635162316685,
          1.0
        ],
        "baseColorTexture": {
          "index": 0
        },
        "metallicFactor": 0.0,
        "metallicRoughnessTexture": {
          "index": 1
        },
        "roughnessFactor": 0.7603832697394887
      }
    },
    {
      "doubleSided": true,
      "extensions": {
        "KHR_materials_specular": {
          "specularColorFactor": [
            1.0,
            1.0,
            1.0
          ],
          "specularFactor": 0.5775255696017358
        }
      },
      "name": "Material.002",
      "pbrMetallicRoughness": {
        "baseColorFactor": [
          0.02232366425788543,
          0.02232366425788543,
          0.02232366425788543,
          1.0
        ],
        "metallicFactor": 0.0,
        "roughnessFactor": 0.04456851678024165
      }
    },
    {
      "doubleSided": true,
      "name": "Material.003",
      "pbrMetallicRoughness": {
        "baseColorTexture": {
          "index": 3
        },
        "metallicFactor": 0.7664785264107471,
        "roughnessFactor": 0.4556204361765674
      }
    }
  ],
  "meshes": [
    {
      "name": "Pillar_Material_0",
      "primitives": [
        {
          "attributes": {
            "NORMAL": 1,
            "POSITION": 0,
            "TEXCOORD_0": 2
          },
          "indices": 3,
          "material": 0,
          "mode": 4
        }
      ]
    },
    {
      "name": "Bookcase_Material_0",
      "primitives": [
        {
          "attributes": {
            "NORMAL": 5,
            "POSITION": 4,
            "TEXCOORD_0": 6
          },
          "indices": 7,
          "material": 0,
          "mode": 4
        }
      ]
    },
    {
      "name": "Bookcase_Material.002_0",
      "primitives": [
        {
          "attributes": {
            "NORMAL": 9,
            "POSITION": 8,
            "TEXCOORD_0": 10
          },
          "indices": 11,
          "material": 1,
          "mode": 4
        }
      ]
    },
    {
      "name": "Ladder_Material_0",
      "primitives": [
        {
          "attributes": {
            "NORMAL": 13,
            "POSITION": 12,
            "TEXCOORD_0": 14
          },
          "indices": 15,
          "material": 0,
          "mode": 4
        }
      ]
    },
    {
      "name": "Handle_Material.003_0",
      "primitives": [
        {
          "attributes": {
            "NORMAL": 17,
            "POSITION": 16,
            "TEXCOORD_0": 18
          },
          "indices": 19,
          "material": 2,
          "mode": 4
        }
      ]
    }
  ],
  "nodes": [
    {
      "children": [
        1
      ],
      "matrix": [
        1.0,
        0.0,
        0.0,
        0.0,
        0.0,
        2.220446049250313e-16,
        -1.0,
        0.0,
        0.0,
        1.0,
        2.220446049250313e-16,
        0.0,
        0.0,
        0.0,
        0.0,
        1.0
      ],
      "name": "Sketchfab_model"
    },
    {
      "children": [
        2
      ],
      "matrix": [
        0.009999999776482582,
        0.0,
        0.0,
        0.0,
        0.0,
        0.0,
        0.009999999776482582,
        0.0,
        0.0,
        -0.009999999776482582,
        0.0,
        0.0,
        0.0,
        0.0,
        0.0,
        1.0
      ],
      "name": "Bookcase.fbx"
    },
    {
      "children": [
        3,
        5,
        8,
        11,
        13
      ],
      "name": "RootNode"
    },
    {
      "children": [
        4
      ],
      "matrix": [
        100.0,
        0.0,
        0.0,
        0.0,
        0.0,
        -1.629206793918314e-05,
        -99.99999999999868,
        0.0,
        0.0,
        99.99999999999868,
        -1.629206793918314e-05,
        0.0,
        0.0,
        0.0,
        0.0,
        1.0
      ],
      "name": "Pillar"
    },
    {
      "mesh": 0,
      "name": "Pillar_Material_0"
    },
    {
      "children": [
        6,
        7
      ],
      "matrix": [
        100.0,
        0.0,
        0.0,
        0.0,
        0.0,
        -1.629206793918314e-05,
        -99.99999999999868,
        0.0,
        0.0,
        99.99999999999868,
        -1.629206793918314e-05,
        0.0,
        0.0,
        0.0,
        0.0,
        1.0
      ],
      "name": "Bookcase"
    },
    {
      "mesh": 1,
      "name": "Bookcase_Material_0"
    },
    {
      "mesh": 2,
      "name": "Bookcase_Material.002_0"
    },
    {
      "children": [
        9
      ],
      "matrix": [
        96.51672349257369,
        -26.061333637166435,
        -2.3084573442825733,
        0.0,
        22.811764597288775,
        79.50378488888634,
        56.20294996083008,
        0.0,
        -12.811927341971513,
        -54.771845663570495,
        82.67949830756145,
        0.0,
        -3615.70703125,
        5146.59619140625,
        1342.6180419921875,
        1.0
      ],
      "name": "Sun"
    },
    {
      "children": [
        10
      ],
      "matrix": [
        1.0,
        0.0,
        0.0,
        0.0,
        0.0,
        2.220446049250313e-16,
        1.0,
        0.0,
        0.0,
        -1.0,
        2.220446049250313e-16,
        0.0,
        0.0,
        0.0,
        0.0,
        1.0
      ],
      "name": "Object_9"
    },
    {
      "name": "Object_10"
    },
    {
      "children": [
        12
      ],
      "matrix": [
        100.0,
        6.944768871489827e-15,
        -1.113982907925068e-15,
        0.0,
        1.1139819306617268e-15,
        -31.276447919789454,
        -94.98306311991551,
        0.0,
        -6.944768484771965e-15,
        94.98306311991551,
        -31.276447919789454,
        0.0,
        -104.68285369873047,
        171.65496826171875,
        86.32757568359375,
        1.0
      ],
      "name": "Ladder"
    },
    {
      "mesh": 3,
      "name": "Ladder_Material_0"
    },
    {
      "children": [
        14
      ],
      "matrix": [
        100.0,
        0.0,
        0.0,
        0.0,
        0.0,
        -1.629206793918314e-05,
        -99.99999999999868,
        0.0,
        0.0,
        99.99999999999868,
        -1.629206793918314e-05,
        0.0,
        0.0,
        0.0,
        -0.6382979154586792,
        1.0
      ],
      "name": "Handle"
    },
    {
      "mesh": 4,
      "name": "Handle_Material.003_0"
    }
  ],
  "samplers": [
    {
      "magFilter": 9729,
      "minFilter": 9987,
      "wrapS": 10497,
      "wrapT": 10497
    }
  ],
  "scene": 0,
  "scenes": [
    {
      "name": "Sketchfab_Scene",
      "nodes": [
        0
      ]
    }
  ],
  "textures": [
    {
      "sampler": 0,
      "source": 0
    },
    {
      "sampler": 0,
      "source": 1
    },
    {
      "sampler": 0,
      "source": 2
    },
    {
      "sampler": 0,
      "source": 3
    }
  ]
}
