{
  "accessors": [
    {
      "bufferView": 2,
      "componentType": 5126,
      "count": 343,
      "max": [
        9.307587623596191,
        9.166187286376953,
        101.76973724365234
      ],
      "min": [
        -9.307587623596191,
        -9.166187286376953,
        -43.40182113647461
      ],
      "type": "VEC3"
    },
    {
      "bufferView": 2,
      "byteOffset": 4116,
      "componentType": 5126,
      "count": 343,
      "max": [
        0.9999879002571106,
        0.9847959876060486,
        0.9123450517654419
      ],
      "min": [
        -0.9999879002571106,
        -0.9847959280014038,
        -0.9639695286750793
      ],
      "type": "VEC3"
    },
    {
      "bufferView": 3,
      "componentType": 5126,
      "count": 343,
      "max": [
        0.988828718662262,
        1.0,
        0.768454372882843,
        1.0
      ],
      "min": [
        -0.990189790725708,
        -0.9999998807907104,
        -0.7626622915267944,
        1.0
      ],
      "type": "VEC4"
    },
    {
      "bufferView": 1,
      "componentType": 5126,
      "count": 343,
      "max": [
        0.9880053400993347,
        0.8785948753356934
      ],
      "min": [
        0.6405375003814697,
        0.003895983099937439
      ],
      "type": "VEC2"
    },
    {
      "bufferView": 0,
      "componentType": 5125,
      "count": 1458,
      "type": "SCALAR"
    },
    {
      "bufferView": 2,
      "byteOffset": 8232,
      "componentType": 5126,
      "count": 81,
      "max": [
        3.0812723636627197,
        3.0812723636627197,
        3.0812723636627197
      ],
      "min": [
        -3.0812723636627197,
        -3.0812723636627197,
        -1.1791521310806274
      ],
      "type": "VEC3"
    },
    {
      "bufferView": 2,
      "byteOffset": 9204,
      "componentType": 5126,
      "count": 81,
      "max": [
        1.0,
        1.0,
        1.0
      ],
      "min": [
        -1.0,
        -1.0,
        -0.19509053230285645
      ],
      "type": "VEC3"
    },
    {
      "bufferView": 3,
      "byteOffset": 5488,
      "componentType": 5126,
      "count": 81,
      "max": [
        0.20497463643550873,
        0.3311571478843689,
        0.9984205365180969,
        1.0
      ],
      "min": [
        -0.9544990062713623,
        -0.6620102524757385,
        -0.9984205961227417,
        1.0
      ],
      "type": "VEC4"
    },
    {
      "bufferView": 1,
      "byteOffset": 2744,
      "componentType": 5126,
      "count": 81,
      "max": [
        0.7083052396774292,
        1.0032532215118408
      ],
      "min": [
        0.4376184642314911,
        0.7470772862434387
      ],
      "type": "VEC2"
    },
    {
      "bufferView": 0,
      "byteOffset": 5832,
      "componentType": 5125,
      "count": 432,
      "type": "SCALAR"
    },
    {
      "bufferView": 2,
      "byteOffset": 10176,
      "componentType": 5126,
      "count": 346,
      "max": [
        5.067020416259766,
        9.157011032104492,
        59.17708206176758
      ],
      "min": [
        -5.067020416259766,
        -8.15248966217041,
        2.801177978515625
      ],
      "type": "VEC3"
    },
    {
      "bufferView": 2,
      "byteOffset": 14328,
      "componentType": 5126,
      "count": 346,
      "max": [
        0.9987090229988098,
        1.0,
        1.0
      ],
      "min": [
        -0.9987090229988098,
        -1.0,
        -1.0
      ],
      "type": "VEC3"
    },
    {
      "bufferView": 3,
      "byteOffset": 6784,
      "componentType": 5126,
      "count": 346,
      "max": [
        0.9999765753746033,
        0.6196861267089844,
        0.9616670608520508,
        1.0
      ],
      "min": [
        -0.9999989867210388,
        -0.9898927807807922,
        -0.9998635053634644,
        -1.0
      ],
      "type": "VEC4"
    },
    {
      "bufferView": 1,
      "byteOffset": 3392,
      "componentType": 5126,
      "count": 346,
      "max": [
        0.5070441961288452,
        0.913422167301178
      ],
      "min": [
        0.016364790499210358,
        0.013085789978504181
      ],
      "type": "VEC2"
    },
    {
      "bufferView": 0,
      "byteOffset": 7560,
      "componentType": 5125,
      "count": 1200,
      "type": "SCALAR"
    }
  ],
  "asset": {
    "extras": {
      "author": "CUPofGOLD (https://sketchfab.com/evenafox7542)",
      "license": "CC-BY-4.0 (http://creativecommons.org/licenses/by/4.0/)",
      "source": "https://sketchfab.com/3d-models/ballpoing-golden-pen-fd069114e3d74b6b85a4680b47a3dd40",
      "title": "ballpoing golden pen"
    },
    "generator": "Sketchfab-15.30.0",
    "version": "2.0"
  },
  "bufferViews": [
    {
      "buffer": 0,
      "byteLength": 12360,
      "name": "floatBufferViews",
      "target": 34963
    },
    {
      "buffer": 0,
      "byteLength": 6160,
      "byteOffset": 12360,
      "byteStride": 8,
      "name": "floatBufferViews",
      "target": 34962
    },
    {
      "buffer": 0,
      "byteLength": 18480,
      "byteOffset": 18520,
      "byteStride": 12,
      "name": "floatBufferViews",
      "target": 34962
    },
    {
      "buffer": 0,
      "byteLength": 12320,
      "byteOffset": 37000,
      "byteStride": 16,
      "name": "floatBufferViews",
      "target": 34962
    }
  ],
  "buffers": [
    {
      "byteLength": 49320,
      "uri": "scene.bin"
    }
  ],
  "extensionsUsed": [
    "KHR_materials_specular"
  ],
  "images": [
    {
      "uri": "textures/Scene_-_Root_baseColor.png"
    },
    {
      "uri": "textures/Scene_-_Root_metallicRoughness.png"
    },
    {
      "uri": "textures/Scene_-_Root_normal.png"
    }
  ],
  "materials": [
    {
      "doubleSided": true,
      "extensions": {
        "KHR_materials_specular": {
          "specularColorFactor": [
            1.0,
            1.0,
            1.0
          ],
          "specularFactor": 1.0
        }
      },
      "name": "Scene_-_Root",
      "normalTexture": {
        "index": 2
      },
      "pbrMetallicRoughness": {
        "baseColorTexture": {
          "index": 0
        },
        "metallicRoughnessTexture": {
          "index": 1
        }
      }
    }
  ],
  "meshes": [
    {
      "name": "Cylinder519__0",
      "primitives": [
        {
          "attributes": {
            "NORMAL": 1,
            "POSITION": 0,
            "TANGENT": 2,
            "TEXCOORD_0": 3
          },
          "indices": 4,
          "material": 0,
          "mode": 4
        }
      ]
    },
    {
      "name": "Sphere001__0",
      "primitives": [
        {
          "attributes": {
            "NORMAL": 6,
            "POSITION": 5,
            "TANGENT": 7,
            "TEXCOORD_0": 8
          },
          "indices": 9,
          "material": 0,
          "mode": 4
        }
      ]
    },
    {
      "name": "Box228__0",
      "primitives": [
        {
          "attributes": {
            "NORMAL": 11,
            "POSITION": 10,
            "TANGENT": 12,
            "TEXCOORD_0": 13
          },
          "indices": 14,
          "material": 0,
          "mode": 4
        }
      ]
    }
  ],
  "nodes": [
    {
      "children": [
        1
      ],
      "matrix": [
        1.0,
        0.0,
        0.0,
        0.0,
        0.0,
        2.220446049250313e-16,
        -1.0,
        0.0,
        0.0,
        1.0,
        2.220446049250313e-16,
        0.0,
        0.0,
        0.0,
        0.0,
        1.0
      ],
      "name": "Sketchfab_model"
    },
    {
      "children": [
        2
      ],
      "matrix": [
        0.009999999776482582,
        0.0,
        0.0,
        0.0,
        0.0,
        0.0,
        0.009999999776482582,
        0.0,
        0.0,
        -0.009999999776482582,
        0.0,
        0.0,
        0.0,
        0.0,
        0.0,
        1.0
      ],
      "name": "079b6844cf304212957596146d30d259.fbx"
    },
    {
      "children": [
        3,
        5,
        7
      ],
      "name": "RootNode"
    },
    {
      "children": [
        4
      ],
      "matrix": [
        1.0,
        0.0,
        0.0,
        0.0,
        0.0,
        2.220446049250313e-16,
        -1.0,
        0.0,
        0.0,
        1.1757299900054932,
        2.6106450112928074e-16,
        0.0,
        -97.29000854492188,
        -18.608917236328125,
        -351.3120422363281,
        1.0
      ],
      "name": "Cylinder519"
    },
    {
      "mesh": 0,
      "name": "Cylinder519__0"
    },
    {
      "children": [
        6
      ],
      "matrix": [
        0.5811330080032349,
        0.0,
        0.0,
        0.0,
        0.0,
        1.2903744917097334e-16,
        -0.5811330080032349,
        0.0,
        0.0,
        0.5811330080032349,
        1.2903744917097334e-16,
        0.0,
        -97.37580871582031,
        100.92948150634766,
        -351.2978515625,
        1.0
      ],
      "name": "Sphere001"
    },
    {
      "mesh": 1,
      "name": "Sphere001__0"
    },
    {
      "children": [
        8
      ],
      "matrix": [
        1.0,
        0.0,
        0.0,
        0.0,
        0.0,
        1.45617073557182e-16,
        -0.655800998210907,
        0.0,
        0.0,
        1.0,
        2.220446049250313e-16,
        0.0,
        -96.67882537841797,
        -62.481285095214844,
        -362.0436706542969,
        1.0
      ],
      "name": "Box228"
    },
    {
      "mesh": 2,
      "name": "Box228__0"
    }
  ],
  "samplers": [
    {
      "magFilter": 9729,
      "minFilter": 9987,
      "wrapS": 10497,
      "wrapT": 10497
    }
  ],
  "scene": 0,
  "scenes": [
    {
      "name": "Sketchfab_Scene",
      "nodes": [
        0
      ]
    }
  ],
  "textures": [
    {
      "sampler": 0,
      "source": 0
    },
    {
      "sampler": 0,
      "source": 1
    },
    {
      "sampler": 0,
      "source": 2
    }
  ]
}
